# xmcd CD database file
# Copyright (C) 1996 Ti Kan
#
# Track frame offsets:
# 	150
# 	13407
# 	22430
# 	36082
# 	47650
# 	58497
# 	71960
# 	84912
# 	98860
# 	114645
#
# Disc length: 1735 seconds
#
# Revision: 1
# Processed by: cddbd v1.4b41PL1 Copyright (c) Steve Scherf et al.
# Submitted via: DiscPlay 3.4.1
#
DISCID=9306c50a
DTITLE=Tennessee Ernie Ford - Best Of Sacred Memories
DYEAR=1900
DGENRE=
TTITLE0=Sweet Hour Of Prayer
TTITLE1=Old Time Religion
TTITLE2=I LoveTo Tell The Story
TTITLE3=Abide With Me
TTITLE4=Blest Be The Tie That Binds
TTITLE5=I Need Thee Every Hour
TTITLE6=Where Could I Go
TTITLE7=Holy, Holy, Holy
TTITLE8=Wondrous Love
TTITLE9=Nearer My God To Thee
EXTD=
EXTT0=
EXTT1=
EXTT2=
EXTT3=
EXTT4=
EXTT5=
EXTT6=
EXTT7=
EXTT8=
EXTT9=
PLAYORDER=
